<?xml version="1.0" standalone="no"?>
<!DOCTYPE svg PUBLIC "-//W3C//DTD SVG 20010904//EN"
 "http://www.w3.org/TR/2001/REC-SVG-20010904/DTD/svg10.dtd">
<svg version="1.0" xmlns="http://www.w3.org/2000/svg"
 width="725.000000pt" height="725.000000pt" viewBox="0 0 725.000000 725.000000"
 preserveAspectRatio="xMidYMid meet">

<g transform="translate(0.000000,725.000000) scale(0.100000,-0.100000)"
fill="#000000" stroke="none">
<path d="M1454 5210 c-11 -4 -33 -22 -47 -40 l-27 -32 0 -1546 c0 -1217 3
-1552 13 -1572 7 -13 28 -35 47 -48 l34 -23 394 3 394 3 34 37 34 38 0 387 c0
214 5 406 10 428 23 100 150 137 217 63 10 -11 135 -223 279 -471 222 -384
266 -453 295 -469 31 -17 66 -18 464 -18 398 0 433 1 464 18 45 24 74 76 68
123 -3 25 -287 525 -897 1583 l-893 1546 -431 -1 c-237 0 -440 -4 -452 -9z"/>
<path d="M3332 5210 l-224 -5 -34 -37 c-29 -32 -34 -45 -34 -86 0 -46 44 -125
866 -1548 476 -824 872 -1509 880 -1522 8 -13 29 -32 47 -42 30 -19 53 -20
467 -20 414 0 437 1 467 20 44 26 66 73 60 124 -4 31 -217 408 -874 1546 -478
828 -876 1515 -884 1528 -35 55 -86 58 -737 42z"/>
</g>
</svg>
